<svg xmlns="http://www.w3.org/2000/svg" viewBox="0 0 374.3 295.01"><defs><style>.cls-1{fill:#730;}</style></defs><g id="Layer_2" data-name="Layer 2"><g id="Object"><path class="cls-1" d="M342.57,108.31H289.72A147.15,147.15,0,0,0,147.5,0C66.17,0,0,66.17,0,147.51S66.17,295,147.5,295c72,0,133.8-52.69,145.48-123.25h49.59a31.73,31.73,0,1,0,0-63.45Zm0,53.83H284.65l-.57,4.16c-9.26,67.89-68,119.09-136.58,119.09-76,0-137.88-61.85-137.88-137.88S71.47,9.62,147.5,9.62A137.53,137.53,0,0,1,281.36,114.41l1,4.06,4.16-.42a21.06,21.06,0,0,1,2.25-.12h53.8a22.11,22.11,0,1,1,0,44.21Z"/><path class="cls-1" d="M149.49,30.58A116.93,116.93,0,1,0,266.42,147.51,116.93,116.93,0,0,0,149.49,30.58Zm-10.38,23c3.55,1,6.14,5.45,9.13,8.36h.06c3-2.91,5.57-7.36,9.13-8.36,3.93-1.1,8.93,8.74,6.37,14.13-3.85,8.09-8.86,15.71-14.28,24.72-.34.8-.69,1.6-1,2.44-.07-.13-.14-.23-.21-.36-.07.13-.14.23-.22.36-.35-.84-.69-1.64-1-2.44-5.41-9-10.43-16.63-14.27-24.72C130.18,62.35,135.17,52.51,139.11,53.61ZM133.6,82l15.73,24.45,15.75-27.28c9.23,22-13.1,31.06-15.77,47.2C134.26,111.67,127.08,92.22,133.6,82Zm-9.47,20.62,24.55,41.56,23-45.63c7.31,10.91,6.22,31.86-2.43,40.66-6.45,6.55-13.43,12.58-19.76,18.46-7.37-6.45-15.1-13-22.53-19.77C117.42,129.11,116.18,114.27,124.13,102.57Zm7,51.27c8.4,6,12.66,14.52,14.21,24.59-5.36-11.59-13.69-19.71-27-22.65L141.13,180c-23.19-10.51-39.44-26.16-39.39-53.64C107.05,140.57,120.14,146,131.12,153.84ZM85.61,146.4c2.84,4.26,5,7.33,7,10.5,7.5,11.81,18.45,18,31.89,21.19,14,3.3,21.68,12.3,23,27.09-4.47-11.3-12.84-14.35-21.68-16.93-8.3-2.43-16.48-5.25-25.29-8.09,5,9.37,13.29,13.39,22.44,16.54,5.48,1.89,11.49,3.42,15.91,6.86s7.12,9.05,9.42,14.79c-7.55-11.45-19.4-14-31.18-17C90.85,194.51,77.24,171.34,85.61,146.4Zm60,100.41c-7.72-4.91-15-10.78-23.15-14.7-9.68-4.63-20.47-6.92-30.22-11.44-19-8.8-30.1-31.67-24.74-51.83a15,15,0,0,1,2.34-5.16c4.65,24.94,22,34.87,43.86,40,11.59,2.7,22.12,7.84,29.62,17.58A17.76,17.76,0,0,1,147,232.12c-1.78-1.89-3.25-4.27-5.38-5.58-7.58-4.68-14.43-11.93-23.17-13.27A83.48,83.48,0,0,1,84.31,199c3.74,6.4,4,7.57,11.91,15.2,6.44,6.2,13.79,5.56,22.43,8.14,12.67,3.78,24.5,8.3,29.65,22.07.37,1,1.71,1.63,1.79,4.2A26.41,26.41,0,0,1,145.64,246.81ZM162.85,152c10.09-9.82,22.74-17.56,26-33.13,4.45,28.39-9.85,47.16-32.12,61.72L176.31,152c-13.22,5.16-20.53,14.88-24.22,27.71C152.09,169.05,155.12,159.54,162.85,152Zm12,30.14c-12.79,3.65-11.79,5.28-19.19,15.66a3,3,0,0,0-.56-.24c2.41-4.83,4.77-9.69,8.22-13.61,5.11-5.81,12.41-9.64,18.3-14.84,9.2-8.13,18-16.7,26.58-24.69,4.72,9.42,1.64,28-9.64,38-8.37,7.42-18.67,12.68-28.22,18.74-5.33,3.39-10.77,6.53-16,9.65a12.1,12.1,0,0,1,2.42-6.35c5.56-5.63,8.75-11.94,14.72-14.42,6.57-2.73,14.18-9.95,19.13-15C189.88,174.44,182,179.73,174.81,182.16Zm56.88,5.94c-3.34,14.22-13.24,23.26-25.61,29.55-7.5,3.81-15.65,6.41-23.6,9.28-8.38,3-16.88,5.68-27.53,9.24C170.79,219.08,196.24,222,210,204l-55,22.87c1.39-5.76,6.39-10.58,13-13.86,8.37-4.17,17-7.77,25.43-11.87,17.06-8.33,29-20.64,30.36-43.22C233,168.05,234.13,177.76,231.69,188.1Z"/></g></g></svg>